<?xml version="1.0" encoding="UTF-8"?>
<svg xmlns="http://www.w3.org/2000/svg" version="1.1" viewBox="0 0 250 218.27404">
  <defs>
    <style>
      .cls-1 {
        fill: #ffb40d;
      }

      .cls-2 {
        fill: #ffb0a6;
      }

      .cls-3 {
        fill: #f1e7ce;
      }

      .cls-4 {
        fill: #ef837b;
      }

      .cls-5 {
        fill: #f97d0d;
      }
    </style>
  </defs>
  <!-- Generator: Adobe Illustrator 28.7.5, SVG Export Plug-In . SVG Version: 1.2.0 Build 176)  -->
  <g>
    <g id="Layer_1">
      <path id="path-08" class="cls-1" d="M165.96875,129.65137c-3.55226,7.12072.25554,26.51272-.25422,30.83679l-45.98438-10.81104-44.24429-27.28078-1.24629-28.95331-8.40532-3.79322s27.45273-38.20079,57.42167-42.04261l16.23659,5.59196,11.83305-1.75824s15.97859,5.12827,25.76434,17.18759c9.78576,12.05932,18.29333,39.36204,18.29333,39.36204l-29.41447,21.66082Z"/>
      <path id="path-07" d="M156.84914,155.90013c7.70164,1.89825,9.08418,3.13496,8.83953,4.91209-.24466,1.77713-11.49308,1.26903-11.49308,1.26903l2.65355-6.18112Z"/>
      <path id="path-06" class="cls-5" d="M127.36515,147.82876c14.55218,3.13628,29.48398,8.07137,29.48398,8.07137,0,0,.06209,27.9288-18.001,40.28486-18.0631,12.35607-59.12666,20.25991-69.16635,21.46121-10.03968,1.20131-28.12193,1.0451-36.97443-3.77694-2.12088.33441-4.94242-1.96314-6.12578.58814-23.17987.7275-34.54234-16.82076-20.31182-33.62516,16.3197-18.09892,61.99692-36.85881,61.99692-36.85881l58.71885,3.22948"/>
      <path id="path-05" d="M95.38717,159.05273l.35326.82329-12.57273,5.36892-.35326-.82329,12.57273-5.36892ZM70.632,95.45281l.06715-6.12361s-4.86495-1.44167-4.86495.32078,4.7978,5.80283,4.7978,5.80283ZM190.46892,106.84881l-27.57374,9.52352s-3.91046,2.86036-3.55538,4.17248c.35526,1.31176,5.81177-.21495,6.06248-.2071l25.02978-7.48189s5.46727-3.4105,4.95107-4.86531c-.5162-1.45445-4.91421-1.1417-4.91421-1.1417ZM164.97677,18.3815c.14871-7.281-1.58929-11.00132-12.0423-16.19708-10.45301-5.19576-24.20685-.48901-26.04065,7.45744-1.83398,7.947-2.79066,13.56426-5.68495,15.46922-2.89466,1.90532-8.37471,3.35849-9.41386,9.71584,0,0,1.86427.59941,4.50147,1.36449,1.58911-3.92287,4.66788-4.66533,4.66788-4.66533,0,0-1.31979,2.11699-2.18596,5.36691,3.91903,1.0782,8.63034,2.22628,11.74342,2.48648l9.57552,5.74918,18.16718-8.34569,16.15293-.54777c.57714-5.9884-9.68519-5.87034-9.44068-17.8537ZM80.83649,161.4613c-20.3369,8.37197-33.38697,15.8774-41.61953,22.36539l-.21495-.36256-.41803.43281-.68152-1.09079s-22.07363,14.12608-11.32101,31.64477c1.17089-.01569,3.48494-.2675,4.90965-.43464.00511.0042.00894.00876.01405.01296.40106-.05383.79556-.09598,1.20228-.16002l-.00018-.00018h.00018c-.00018-.00018-.00055-.00018-.00073-.00036-4.38633-3.26671-6.14039-7.69574-5.58423-12.12733.46164-3.68037,2.75088-8.40883,8.90587-14.07298l15.688,17.24755-12.05252-20.33508c8.13038-6.42011,21.1164-13.8927,41.51425-22.2904l-.34158-.82913Z"/>
      <path id="path-04" class="cls-3" d="M36.89316,181.19078l-1.39158-8.03935c5.20296-9.29045,20.44739-10.21633,26.32751-7.5888,4.66231-10.17179,13.90911-9.43512,19.96857-6.76263l27.51315,21.12289,2.97102,4.56684s-16.85944,1.46339-26.05463,11.1221c-8.25406-2.38771-34.51092,9.30421-34.51092,9.30421l-14.82313-23.72526Z"/>
      <path id="path-03" class="cls-2" d="M127.49505,47.94766l3.02673-8.56786,5.12869.16313c.54909-1.34412.4554-3.10331.21716-4.54766,1.00546-1.53251-.65191-2.66381-.65191-2.66381-7.66855-3.43639-5.36421-13.55409.84042-11.02071,8.29088,3.1922,13.57342-5.9678,15.26937-10.83085,6.19787-.14153,7.78107,2.24986,7.86029,5.1727s2.08457,14.83146,1.41891,20.78985c-.66566,5.95839-8.68128,7.37913-12.85379,5.35113l-1.13267,1.77235.48208,3.80778-.33731,2.89316,4.56249,1.17405c-8.07652,7.75977-25.22351,5.43547-28.06952-3.83366l4.23906.34041ZM234.73569,194.00965c-5.35159-1.9993-17.13515,1.99108-20.37486-.55634-3.10414-2.4405-16.58191-68.3251-23.07629-84.71231h0c-5.36071-.91197-24.42289,6.82756-24.42289,6.82756l-2.45747,7.46766h0c3.22858,13.48981,11.64635,44.88734,25.19838,69.577,12.06712,21.85978,22.29751,19.95847,26.79187,19.41471,4.49454-.54375,9.15238-1.57579,13.65294-1.69804,4.50038-.12225,8.58564-.08831,8.46338-3.80992,2.85069.01587,3.02057,2.6029,5.73878,2.2438s3.22785-2.03615,3.22785-2.03615c2.29362.82767,2.52261-2.58866,2.52261-2.58866,0,0-9.91272-8.12983-15.26431-10.12931ZM151.96465,173.72986c-.93533-5.96814-6.32925-13.18418-9.10458-15.93579-2.77515-2.75161-43.25846-30.04289-55.35002-39.59269l1.81665-5.1943h0c-.4454.21075-1.77833-8.48054-1.77833-8.48054,0,0-8.47835-7.99189-12.09211-11.04968s-5.699-2.22282-5.699-2.22282v-.00018c-2.35438,4.86002-8.4435,17.94056-10.90042,29.08366-3.01381,13.66863-1.22417,22.85477,17.26725,29.05848,18.49161,6.20353,41.22978,15.14297,41.22978,15.14297,3.26945,10.14865,15.15556,11.67828,17.11453,13.07105,1.95897,1.39259,2.73774,10.30849,7.15181,9.47918,0,0,1.12692,2.55071,4.01082,1.9274.73699-.4038,1.43401-1.62232,1.43401-1.62232,0,0,2.78117,2.03013,4.26007-.48208.44376-1.18093.49065-2.12812.49065-2.12812,0,0,1.08422-5.08591.14889-11.05424Z"/>
      <path id="path-02" class="cls-4" d="M139.10677,38.61148c.13988-.27572,6.77751,2.25231,8.64408,3.18205l-.65048,5.58015c-2.46036-2.58438-8.10328-8.54621-7.9936-8.76219ZM138.93837,31.45701s-2.23189,1.14505-3.72268.8744c0,0,.40109,1.16395.64896,2.66436,2.86027-.72658,3.07372-3.53876,3.07372-3.53876ZM190.46891,106.84888s-15.61951,1.40558-27.57371,9.52354c0,0,.5079,2.48111,1.50902,6.66378,6.16077-6.88246,22.28363-13.0731,26.88037-14.29509-.28415-.71713-.5597-1.37453-.81568-1.89222ZM69.75722,91.25417c8.86394,5.77352,16.12573,16.20959,19.56949,21.75295l2.93012-8.37781s-18.54744-14.13817-21.55772-15.30009c-.06378.13803-.40834.82344-.94189,1.92496Z"/>
      <path id="path-01" d="M151.38422,30.01763l-.29779-.47296c.17225-.10656.31822-.09196.8846-.03357,2.2188.2321,2.8027-.01314,2.88736-.26129.25983-.75469-.35034-3.80408-.79702-5.54993l.87-.22188c.20436.79702,1.19991,4.83758.77366,6.06522-.26859.7795-1.23786.96781-2.23632.96781-.56054,0-1.13276-.05985-1.59112-.10802-.22188-.02336-.39413-.04671-.47879-.04087l-.0146-.3445ZM136.27884,24.52755c-1.22034-.54594-2.97787-.62331-4.26244.79264l.66564.60141c1.2145-1.34004,2.77934-.7795,3.22894-.5766,1.01014.45252,1.68162,1.33712,1.59695,2.10348l.89336.09634c.12554-1.15903-.74739-2.40127-2.12246-3.01728ZM155.10072,34.92236l-.3153-.84081c-3.69314,1.38821-5.78057-.96343-5.86815-1.06561l-.68316.57952c.01752.02336,1.57068,1.81592,4.31499,1.81592.76198,0,1.61447-.13722,2.55162-.48901ZM150.77606,24.04146c0-.94336-.76472-1.70808-1.70808-1.70808s-1.70808.76472-1.70808,1.70808.76472,1.70808,1.70808,1.70808,1.70808-.76472,1.70808-1.70808ZM159.18744,24.04146c0-.94336-.76472-1.70808-1.70808-1.70808s-1.70808.76472-1.70808,1.70808.76472,1.70808,1.70808,1.70808,1.70808-.76472,1.70808-1.70808ZM150.51294,21.31065c.9866.14378.72294-1.98634-1.93853-1.74512-2.66129.24104-3.6342,1.88598-3.46524,2.06298.6432.99135,2.28705-.90358,5.40377-.31786ZM159.08015,21.62851c.65834.4288.73023-1.50043-1.83763-1.78179-2.56805-.28118-3.41196.99883-2.80909,1.46394.68316.46529,3.98837-.47259,4.64671.31786ZM235.93231,204.69877c-1.21158-.07883-4.95143-.73863-8.25045-1.3196-5.56744-.98386-5.61416-.95467-5.83896-.84373l.25399.49631.00876.3445h.01168c.37953,0,3.05085.47004,5.40687.88752,3.32529.5839,7.09141,1.24954,8.32635,1.32836,1.7692.2102,2.23632,1.08897,2.25384,1.11816l.81161-.37953c-.02628-.05547-.6598-1.35464-2.98371-1.63199ZM247.75328,204.90605c-6.00245-6.16594-14.26749-9.24599-14.34924-9.27518l-.30946.84081c.08175.02919,8.15994,3.04502,14.05729,9.09709.32114.25691-.05547.92547-.05839.93131l.77074.45836c.29487-.49631.59265-1.49185-.11094-2.05239ZM87.81259,117.86765c-3.28003-2.97787-7.79501-5.17332-7.98477-5.26382l-.39121.80578c.04671.02336,4.59234,2.2334,7.77165,5.12368l.60433-.66564ZM137.62472,173.04579c1.74585,3.25814,4.80546,11.09694,4.88721,12.51872.01752.34742-.05547.61309-.21896.78826-.25399.27443-.67148.28611-.67732.28611l.00584.4496.00292.4496c.07883-.00292.80286-.02044,1.31668-.56638.34158-.36202.49923-.85249.4642-1.45682-.09342-1.64951-3.30777-9.75398-4.99231-12.89534l-.78826.42624ZM142.55572,170.88829c1.47142,3.11508,4.8259,14.05729,4.08435,16.36951l.85249.27443c.87292-2.71803-2.72679-14.06605-4.12522-17.02932l-.81161.38537ZM146.03574,169.43147c3.23478,5.34265,5.31929,15.34478,5.34265,15.44404l.87584-.18101c-.08466-.41749-2.13706-10.25029-5.45359-15.73015l-.7649.46712ZM102.47859,78.12771l-.83497-.32406c-.05109.13138-5.1631,13.31136-9.80945,26.67819l.84665.29487c4.64051-13.35223,9.74668-26.51762,9.79777-26.649ZM151.90973,96.48685c.2102.79994,5.1266,19.62327,7.43007,24.05796l.7941-.41457c-2.25676-4.34418-7.30453-23.67405-7.35417-23.86819l-.87.2248ZM159.6989,59.7131l-.36785-.81745c-6.3703,2.88007-10.60646,10.02841-10.07512,16.9972l.89336-.06715c-.50215-6.60678,3.51213-13.38289,9.54961-16.1126ZM83.11515,191.36442l-20.93558-26.08152-.70067.56054,20.5066,25.54726c-6.19386-1.20684-18.72572.26421-29.63581,7.47204-2.46696-3.96465-15.68052-25.1805-16.53155-26.03007l-.63499.63353c.6629.6921,10.24135,15.95805,16.57041,26.1359l-.48409,5.27185.89336.08175.4777-5.20288c11.53395-7.7129,24.93453-8.86062,30.38264-7.19323l.35618.10802.17225-.3299c3.53257-6.74691,24.88271-12.52164,25.09729-12.58003l-.23064-.86417c-.87146.23082-20.81843,5.63879-25.30312,12.47092ZM61.6599,196.57386l.33866.82913c.12846-.05255,12.94789-5.19375,22.05958-3.48878l.16641-.88168c-9.37736-1.74293-22.02892,3.32237-22.56465,3.54133ZM87.29292,190.27947c-.32406.23356-.53572.39413-.62623.44084l.34158.82913c.127-.04963.28465-.16349.81161-.54594,2.42317-1.76336,9.79485-7.12645,18.80728-8.09571l-.09634-.89336c-9.25037.99554-16.76802,6.46664-19.2379,8.26504ZM98.73727,176.50245l-.24232-.86417c-5.48278,1.53565-12.28224,4.09603-16.22792,10.297l.75614.47879c3.78364-5.94406,10.38458-8.41978,15.71409-9.91163ZM95.25726,171.6532c-3.04648.42624-11.81075,3.19683-15.72723,10.80791l.79702.40873c3.72379-7.23155,12.33334-9.94666,15.05575-10.32911l-.12554-.88752ZM90.75542,169.01691l-.25108-.85833c-2.56622.74447-11.18014,3.70774-14.2996,10.50136l.81453.37369c2.96181-6.44913,11.26189-9.29562,13.73614-10.01673ZM89.34677,166.00693l-.13868-.88752c-.31092.04963-7.63881,1.23202-10.7539,5.00399l.69192.57222c2.89758-3.50921,10.12767-4.677,10.20066-4.68868ZM53.64301,194.66744c9.53502-8.13659,21.19103-7.10309,22.48728-6.95712l.09926-.89336c-1.32982-.14597-13.34493-1.2145-23.16752,7.16732l.58098.68316ZM71.94084,182.73846l.15181-.88168c-5.31783-.92256-15.00028,1.77212-20.93996,7.24906l.60725.6598c5.66087-5.22003,15.16815-7.89135,20.18089-7.02718ZM58.58131,180.07589c2.50199-.97511,6.68415-2.59834,9.11315-1.77212l.29195-.84665c-2.73993-.94299-7.11331.76198-9.73062,1.7838-.73717.28611-1.57214.61309-1.76774.61893l-.0905.42624-.27297.35618c.09926.07591.20436.11678.3518.11678.33574,0,.89044-.2102,2.10494-.68316Z"/>
    </g>
  </g>
</svg>